<svg width="80" height="80" viewBox="0 0 80 80" xmlns="http://www.w3.org/2000/svg">
  <defs>
    <linearGradient id="letterGrad" x1="0%" y1="0%" x2="100%" y2="100%">
      <stop offset="0%" style="stop-color:#1e40af;stop-opacity:1" />
      <stop offset="35%" style="stop-color:#3b82f6;stop-opacity:1" />
      <stop offset="65%" style="stop-color:#1e40af;stop-opacity:1" />
      <stop offset="75%" style="stop-color:#2563eb;stop-opacity:1" />
      <stop offset="100%" style="stop-color:#ea580c;stop-opacity:1" />
    </linearGradient>
  </defs>
  
  <!-- Letter B - Bold chunky font style -->
  <path d="M15 10 L15 70 L52 70 C62 70 70 62 70 52 C70 45 65 39 59 37 C64 35 69 29 69 22 C69 12 61 4 51 4 L15 4 Z M30 18 L48 18 C52 18 55 21 55 25 C55 29 52 32 48 32 L30 32 Z M30 44 L50 44 C54 44 57 47 57 51 C57 55 54 58 50 58 L30 58 Z" 
        fill="url(#letterGrad)" 
        transform="translate(10, 5)"/>
</svg>